General

Format                           : MPEG-4
Format profile                   : Base Media
Codec ID                         : isom
File size                        : 206 MiB
Duration                         : 7mn 18s
Overall bit rate                 : 3 934 Kbps
Encoded date                     : UTC 2012-03-01 04:59:24
Tagged date                      : UTC 2012-03-01 04:59:24

Video
ID                               : 1
Format                           : AVC
Format/Info                      : Advanced Video Codec
Format profile                   : High@L3.0
Format settings, CABAC           : Yes
Format settings, ReFrames        : 2 frames
Codec ID                         : avc1
Codec ID/Info                    : Advanced Video Coding
Duration                         : 7mn 18s
Bit rate mode                    : Variable
Bit rate                         : 3 870 Kbps
Maximum bit rate                 : 10.1 Mbps
Width                            : 720 pixels
Height                           : 480 pixels
Display aspect ratio             : 16:9
Original display aspect ratio    : 16:9
Frame rate mode                  : Constant
Frame rate                       : 23.976 fps
Standard                         : NTSC
Color space                      : YUV
Chroma subsampling               : 4:2:0
Bit depth                        : 8 bits
Scan type                        : Progressive
Bits/(Pixel*Frame)               : 0.467
Stream size                      : 202 MiB (98%)


Audio
ID                               : 2
Format                           : AAC
Format/Info                      : Advanced Audio Codec
Format profile                   : LC
Codec ID                         : 40
Duration                         : 7mn 18s
Bit rate mode                    : Variable
Bit rate                         : 63.8 Kbps
Maximum bit rate                 : 83.1 Kbps
Channel(s)                       : 2 channels
Channel positions                : Front: L R
Sampling rate                    : 44.1 KHz
Compression mode                 : Lossy
Stream size                      : 3.34 MiB (2%)
